<svg xmlns="http://www.w3.org/2000/svg" viewBox="0 0 32 32"><defs><style>.cls-1{fill:#231f20;}</style></defs><g id="camper_van" data-name="camper van"><path class="cls-1" d="M29,12.42,25.78,8.57A4.36,4.36,0,0,0,22.42,7H5.57A3.57,3.57,0,0,0,2,10.57V16a1,1,0,0,0,2,0V10.57A1.58,1.58,0,0,1,5.57,9H22.42a2.33,2.33,0,0,1,1.82.86l.13.14H20a1,1,0,0,0-1,1v5a1,1,0,0,0,1,1h2a1,1,0,0,0,0-2H21V12h5l1.42,1.71A2.34,2.34,0,0,1,28,15H26a1,1,0,0,0,0,2h2v4H25.86a4,4,0,0,0-7.72,0H13.86a4,4,0,0,0-7.72,0H4V20a1,1,0,0,0-2,0v2a1,1,0,0,0,1,1H6.14a4,4,0,0,0,7.72,0h4.28a4,4,0,0,0,7.72,0H29a1,1,0,0,0,1-1V15.22A4.41,4.41,0,0,0,29,12.42ZM10,24a2,2,0,1,1,2-2A2,2,0,0,1,10,24Zm12,0a2,2,0,1,1,2-2A2,2,0,0,1,22,24Z"/><path class="cls-1" d="M10,12a1,1,0,0,0,0-2H6a1,1,0,0,0-1,1v5a1,1,0,0,0,1,1H16a1,1,0,0,0,1-1V11a1,1,0,0,0-1-1H14a1,1,0,0,0,0,2h1v3H7V12Z"/></g></svg>